<svg id="Calque_1" data-name="Calque 1" xmlns="http://www.w3.org/2000/svg" viewBox="0 0 881 529"><defs><style>.cls-1,.cls-10,.cls-7{fill:none;stroke-miterlimit:10;}.cls-1,.cls-7{stroke:#000;}.cls-2{font-size:20px;font-family:Calibri;}.cls-3{letter-spacing:-0.01em;}.cls-4{letter-spacing:0em;}.cls-5{letter-spacing:-0.08em;}.cls-6{letter-spacing:-0.01em;}.cls-7{stroke-dasharray:4.6 4.6;}.cls-8{letter-spacing:-0.01em;}.cls-9{letter-spacing:-0.01em;}.cls-10{stroke:red;}</style></defs><line class="cls-1" x1="115.5" y1="30" x2="115.5" y2="211"/><line class="cls-1" x1="323.5" y1="30" x2="323.5" y2="211"/><line class="cls-1" x1="26.5" y1="30" x2="26.5" y2="211"/><text class="cls-2" transform="translate(38 51)">Cou<tspan class="cls-3" x="31.72" y="0">n</tspan><tspan x="42.04" y="0">t</tspan><tspan class="cls-4" x="48.74" y="0">r</tspan><tspan x="55.81" y="0">y</tspan></text><text class="cls-2" transform="translate(59 84)"><tspan class="cls-5">A</tspan><tspan x="10.01" y="0">T</tspan></text><text class="cls-2" transform="translate(206 84)">8.5</text><text class="cls-2" transform="translate(207 113)">14.2</text><text class="cls-2" transform="translate(207 141)">8.9</text><text class="cls-2" transform="translate(208 172)">8.0</text><text class="cls-2" transform="translate(207 202)">16.6</text><text class="cls-2" transform="translate(59 113)">BE</text><text class="cls-2" transform="translate(59 141)">BG</text><text class="cls-2" transform="translate(59 172)">CH</text><text class="cls-2" transform="translate(59 202)">CY</text><text class="cls-2" transform="translate(126 51)"><tspan class="cls-5">T</tspan><tspan x="8.18" y="0">aux chôma</tspan><tspan class="cls-6" x="96.52" y="0">g</tspan><tspan x="105.77" y="0">e en 2019</tspan></text><line class="cls-1" x1="27" y1="60.5" x2="324" y2="60.5"/><line class="cls-1" x1="26" y1="29.5" x2="324" y2="29.5"/><line class="cls-1" x1="27" y1="90.5" x2="324" y2="90.5"/><line class="cls-1" x1="27" y1="120.5" x2="324" y2="120.5"/><line class="cls-1" x1="27" y1="150.5" x2="324" y2="150.5"/><line class="cls-1" x1="27" y1="180.5" x2="324" y2="180.5"/><line class="cls-1" x1="26" y1="211.5" x2="324" y2="211.5"/><line class="cls-1" x1="26.5" y1="211" x2="26.5" y2="213.5"/><line class="cls-7" x1="26.5" y1="218.1" x2="26.5" y2="234.2"/><line class="cls-1" x1="26.5" y1="236.5" x2="26.5" y2="239"/><line class="cls-1" x1="323.5" y1="211" x2="323.5" y2="213.5"/><line class="cls-7" x1="323.5" y1="218.1" x2="323.5" y2="234.2"/><line class="cls-1" x1="323.5" y1="236.5" x2="323.5" y2="239"/><line class="cls-1" x1="115.5" y1="212" x2="115.5" y2="214.5"/><line class="cls-7" x1="115.5" y1="219.1" x2="115.5" y2="235.2"/><line class="cls-1" x1="115.5" y1="237.5" x2="115.5" y2="240"/><line class="cls-1" x1="281.5" y1="301" x2="281.5" y2="482"/><line class="cls-1" x1="697.5" y1="301" x2="697.5" y2="482"/><line class="cls-1" x1="489.5" y1="301" x2="489.5" y2="482"/><line class="cls-1" x1="192.5" y1="301" x2="192.5" y2="482"/><text class="cls-2" transform="translate(204 322)">Cou<tspan class="cls-3" x="31.72" y="0">n</tspan><tspan x="42.04" y="0">t</tspan><tspan class="cls-4" x="48.74" y="0">r</tspan><tspan x="55.81" y="0">y</tspan></text><text class="cls-2" transform="translate(225 355)"><tspan class="cls-5">A</tspan><tspan x="10.01" y="0">T</tspan></text><text class="cls-2" transform="translate(372 355)">8.5</text><text class="cls-2" transform="translate(373 384)">14.2</text><text class="cls-2" transform="translate(373 412)">8.9</text><text class="cls-2" transform="translate(374 443)">8.0</text><text class="cls-2" transform="translate(373 473)">16.6</text><text class="cls-2" transform="translate(225 384)">BE</text><text class="cls-2" transform="translate(225 412)">BG</text><text class="cls-2" transform="translate(225 443)">CH</text><text class="cls-2" transform="translate(225 473)">CY</text><text class="cls-2" transform="translate(292 322)"><tspan class="cls-5">T</tspan><tspan x="8.18" y="0">aux chôma</tspan><tspan class="cls-6" x="96.52" y="0">g</tspan><tspan x="105.77" y="0">e en 2019</tspan></text><line class="cls-1" x1="193" y1="331.5" x2="698" y2="331.5"/><line class="cls-1" x1="192" y1="300.5" x2="698" y2="300.5"/><line class="cls-1" x1="193" y1="361.5" x2="698" y2="361.5"/><line class="cls-1" x1="193" y1="391.5" x2="698" y2="391.5"/><line class="cls-1" x1="193" y1="421.5" x2="698" y2="421.5"/><line class="cls-1" x1="193" y1="451.5" x2="698" y2="451.5"/><line class="cls-1" x1="192" y1="482.5" x2="698" y2="482.5"/><line class="cls-1" x1="192.5" y1="482" x2="192.5" y2="484.5"/><line class="cls-7" x1="192.5" y1="489.1" x2="192.5" y2="505.2"/><line class="cls-1" x1="192.5" y1="507.5" x2="192.5" y2="510"/><line class="cls-1" x1="489.5" y1="482" x2="489.5" y2="484.5"/><line class="cls-7" x1="489.5" y1="489.1" x2="489.5" y2="505.2"/><line class="cls-1" x1="489.5" y1="507.5" x2="489.5" y2="510"/><line class="cls-1" x1="697.5" y1="481" x2="697.5" y2="483.5"/><line class="cls-7" x1="697.5" y1="488.1" x2="697.5" y2="504.2"/><line class="cls-1" x1="697.5" y1="506.5" x2="697.5" y2="509"/><line class="cls-1" x1="281.5" y1="483" x2="281.5" y2="485.5"/><line class="cls-7" x1="281.5" y1="490.1" x2="281.5" y2="506.2"/><line class="cls-1" x1="281.5" y1="508.5" x2="281.5" y2="511"/><line class="cls-1" x1="646.5" y1="31" x2="646.5" y2="212"/><line class="cls-1" x1="854.5" y1="31" x2="854.5" y2="212"/><line class="cls-1" x1="557.5" y1="31" x2="557.5" y2="212"/><text class="cls-2" transform="translate(569 52)">Cou<tspan class="cls-3" x="31.72" y="0">n</tspan><tspan x="42.04" y="0">t</tspan><tspan class="cls-4" x="48.74" y="0">r</tspan><tspan x="55.81" y="0">y</tspan></text><text class="cls-2" transform="translate(590 85)"><tspan class="cls-5">A</tspan><tspan x="10.01" y="0">T</tspan></text><text class="cls-2" transform="translate(590 114)">BE</text><text class="cls-2" transform="translate(590 142)">BG</text><text class="cls-2" transform="translate(590 173)">CH</text><text class="cls-2" transform="translate(590 203)">CY</text><text class="cls-2" transform="translate(694 52)">Coo<tspan class="cls-8" x="31.76" y="0">r</tspan><tspan x="38.46" y="0">données</tspan></text><text class="cls-2" transform="translate(678 84)">[51.20, 120.34...]</text><text class="cls-2" transform="translate(678 113)">[27.54, 123.27...]</text><text class="cls-2" transform="translate(678 143)">[27.12, 14.56...]</text><text class="cls-2" transform="translate(678 173)">[15.42, 56.69...]</text><text class="cls-2" transform="translate(678 203)">[53.43, 10.20...]</text><text class="cls-2" transform="translate(531 353)">[51.20, 120.34...]</text><text class="cls-2" transform="translate(531 382)">[27.54, 123.27...]</text><text class="cls-2" transform="translate(531 412)">[27.12, 14.56...]</text><text class="cls-2" transform="translate(531 442)">[15.42, 56.69...]</text><text class="cls-2" transform="translate(531 472)">[53.43, 10.20...]</text><text class="cls-2" transform="translate(545 322)">Coo<tspan class="cls-8" x="31.76" y="0">r</tspan><tspan x="38.46" y="0">données</tspan></text><line class="cls-1" x1="558" y1="61.5" x2="855" y2="61.5"/><line class="cls-1" x1="557" y1="30.5" x2="855" y2="30.5"/><line class="cls-1" x1="558" y1="91.5" x2="855" y2="91.5"/><line class="cls-1" x1="558" y1="121.5" x2="855" y2="121.5"/><line class="cls-1" x1="558" y1="151.5" x2="855" y2="151.5"/><line class="cls-1" x1="558" y1="181.5" x2="855" y2="181.5"/><line class="cls-1" x1="557" y1="212.5" x2="855" y2="212.5"/><line class="cls-1" x1="557.5" y1="212" x2="557.5" y2="214.5"/><line class="cls-7" x1="557.5" y1="219.1" x2="557.5" y2="235.2"/><line class="cls-1" x1="557.5" y1="237.5" x2="557.5" y2="240"/><line class="cls-1" x1="854.5" y1="212" x2="854.5" y2="214.5"/><line class="cls-7" x1="854.5" y1="219.1" x2="854.5" y2="235.2"/><line class="cls-1" x1="854.5" y1="237.5" x2="854.5" y2="240"/><line class="cls-1" x1="646.5" y1="213" x2="646.5" y2="215.5"/><line class="cls-7" x1="646.5" y1="220.1" x2="646.5" y2="236.2"/><line class="cls-1" x1="646.5" y1="238.5" x2="646.5" y2="241"/><line class="cls-1" x1="345.18" y1="78.5" x2="535.82" y2="78.5"/><polygon points="346.63 83.49 338 78.5 346.63 73.51 346.63 83.49"/><polygon points="534.37 83.49 543 78.5 534.37 73.51 534.37 83.49"/><line class="cls-1" x1="345.18" y1="107.5" x2="535.82" y2="107.5"/><polygon points="346.63 112.49 338 107.5 346.63 102.51 346.63 112.49"/><polygon points="534.37 112.49 543 107.5 534.37 102.51 534.37 112.49"/><line class="cls-1" x1="345.18" y1="136.5" x2="535.82" y2="136.5"/><polygon points="346.63 141.49 338 136.5 346.63 131.51 346.63 141.49"/><polygon points="534.37 141.49 543 136.5 534.37 131.51 534.37 141.49"/><line class="cls-1" x1="345.18" y1="165.5" x2="535.82" y2="165.5"/><polygon points="346.63 170.49 338 165.5 346.63 160.51 346.63 170.49"/><polygon points="534.37 170.49 543 165.5 534.37 160.51 534.37 170.49"/><line class="cls-1" x1="345.18" y1="194.5" x2="535.82" y2="194.5"/><polygon points="346.63 199.49 338 194.5 346.63 189.51 346.63 199.49"/><polygon points="534.37 199.49 543 194.5 534.37 189.51 534.37 199.49"/><text class="cls-2" transform="translate(384.04 28.3)">Joi<tspan class="cls-3" x="21.51" y="0">n</tspan><tspan x="31.84" y="0">tu</tspan><tspan class="cls-9" x="49.04" y="0">r</tspan><tspan x="55.75" y="0">e 1 à 1</tspan></text><line class="cls-1" x1="17" y1="268" x2="334" y2="268"/><line class="cls-1" x1="17.5" y1="268" x2="17.5" y2="258"/><line class="cls-1" x1="333.5" y1="268" x2="333.5" y2="258"/><line class="cls-1" x1="548" y1="268" x2="865" y2="268"/><line class="cls-1" x1="548.5" y1="268" x2="548.5" y2="258"/><line class="cls-1" x1="864.5" y1="268" x2="864.5" y2="258"/><line class="cls-1" x1="814.5" y1="268.5" x2="814.5" y2="312.5"/><line class="cls-1" x1="75.5" y1="268" x2="75.5" y2="312"/><line class="cls-1" x1="814.5" y1="312.5" x2="716.18" y2="312.5"/><polygon points="717.63 307.51 709 312.5 717.63 317.49 717.63 307.51"/><line class="cls-1" x1="173.32" y1="312.5" x2="75" y2="312.5"/><polygon points="171.87 307.51 180.5 312.5 171.87 317.49 171.87 307.51"/><ellipse class="cls-10" cx="601.5" cy="75.5" rx="37" ry="19"/><ellipse class="cls-10" cx="70.5" cy="75.5" rx="37" ry="19"/></svg>